<svg xmlns="http://www.w3.org/2000/svg" width="512" height="512" viewBox="0 0 512 512">
  <defs>
    <linearGradient id="gradient" x1="0%" y1="0%" x2="100%" y2="100%">
      <stop offset="0%" style="stop-color:#E53935;stop-opacity:1" />
      <stop offset="100%" style="stop-color:#B71C1C;stop-opacity:1" />
    </linearGradient>
  </defs>
  <rect x="80" y="40" width="352" height="432" rx="32" ry="32" fill="url(#gradient)" />
  <path d="M256,180 C290,180 320,210 320,250 C320,290 290,320 256,320 L200,320 L200,380 L170,380 L170,180 Z M256,210 L200,210 L200,290 L256,290 C273,290 290,273 290,250 C290,227 273,210 256,210 Z" fill="#FFFFFF" />
  <path d="M342,180 L342,380 L372,380 L372,180 Z" fill="#FFFFFF" />
  <rect x="80" y="40" width="352" height="432" rx="32" ry="32" fill="url(#gradient)" opacity="0.85" />
</svg>
