<?xml version="1.0" encoding="UTF-8"?>
<svg xmlns="http://www.w3.org/2000/svg" viewBox="0 0 24 24" width="24" height="24">
  <path d="M12 0C5.372 0 0 5.372 0 12s5.372 12 12 12 12-5.372 12-12S18.628 0 12 0zm0 22C6.486 22 2 17.514 2 12S6.486 2 12 2s10 4.486 10 10-4.486 10-10 10z"/>
  <path d="M15.293 7.293l-4 4a.999.999 0 0 0 0 1.414l4 4a.999.999 0 1 0 1.414-1.414L13.414 12l3.293-3.293a.999.999 0 1 0-1.414-1.414z"/>
  <path d="M8.707 7.293a.999.999 0 0 0-1.414 1.414L10.586 12l-3.293 3.293a.999.999 0 1 0 1.414 1.414l4-4a.999.999 0 0 0 0-1.414l-4-4z"/>
</svg>
