<?xml version="1.0" encoding="UTF-8"?>
<svg version="1.1" xmlns="http://www.w3.org/2000/svg" width="512" height="512">
<path d="M0,0 L210,0 L210,1 L213,1 L213,2 L216,2 L216,3 L218,3 L218,4 L220,4 L220,5 L222,5 L222,6 L224,6 L224,7 L225,7 L225,8 L226,8 L226,9 L228,9 L228,10 L229,10 L229,11 L230,11 L230,12 L231,12 L231,13 L232,13 L232,14 L233,14 L233,15 L234,15 L234,16 L235,16 L235,17 L236,17 L236,18 L237,18 L237,19 L238,19 L238,20 L239,20 L239,21 L240,21 L240,22 L241,22 L241,23 L242,23 L242,24 L243,24 L243,25 L244,25 L244,26 L245,26 L245,27 L246,27 L246,28 L247,28 L247,29 L248,29 L248,30 L249,30 L249,31 L250,31 L250,32 L251,32 L251,33 L252,33 L252,34 L253,34 L253,35 L254,35 L254,36 L255,36 L255,37 L256,37 L256,38 L257,38 L257,39 L258,39 L258,40 L259,40 L259,41 L260,41 L260,42 L261,42 L261,43 L262,43 L262,44 L263,44 L263,45 L264,45 L264,46 L265,46 L265,47 L266,47 L266,48 L267,48 L267,49 L268,49 L268,50 L269,50 L269,51 L270,51 L270,52 L271,52 L271,53 L272,53 L272,54 L273,54 L273,55 L274,55 L274,56 L275,56 L275,57 L276,57 L276,58 L277,58 L277,59 L278,59 L278,60 L279,60 L279,61 L280,61 L280,62 L281,62 L281,63 L282,63 L282,64 L283,64 L283,65 L284,65 L284,66 L285,66 L285,67 L286,67 L286,68 L287,68 L287,69 L288,69 L288,70 L289,70 L289,71 L290,71 L290,72 L291,72 L291,73 L292,73 L292,74 L293,74 L293,75 L294,75 L294,76 L295,76 L295,77 L296,77 L296,78 L297,78 L297,79 L298,79 L298,80 L299,80 L299,81 L300,81 L300,82 L301,82 L301,83 L302,83 L302,84 L303,84 L303,85 L304,85 L304,86 L305,86 L305,87 L306,87 L306,88 L307,88 L307,89 L308,89 L308,90 L309,90 L309,91 L310,91 L310,92 L311,92 L311,93 L312,93 L312,94 L313,94 L313,95 L314,95 L314,96 L315,96 L315,97 L316,97 L316,98 L317,98 L317,99 L318,99 L318,100 L319,100 L319,101 L320,101 L320,102 L321,102 L321,103 L322,103 L322,104 L323,104 L323,105 L324,105 L324,106 L325,106 L325,107 L326,107 L326,108 L327,108 L327,109 L328,109 L328,110 L329,110 L329,111 L330,111 L330,112 L331,112 L331,113 L332,113 L332,114 L333,114 L333,115 L334,115 L334,116 L335,116 L335,117 L336,117 L336,118 L337,118 L337,119 L338,119 L338,120 L339,120 L339,121 L340,121 L340,122 L341,122 L341,123 L342,123 L342,124 L343,124 L343,125 L344,125 L344,126 L345,126 L345,127 L346,127 L346,128 L347,128 L347,129 L348,129 L348,130 L349,130 L349,131 L350,131 L350,132 L351,132 L351,133 L352,133 L352,134 L353,134 L353,135 L354,135 L354,136 L355,136 L355,137 L356,137 L356,138 L357,138 L357,139 L358,139 L358,140 L359,140 L359,142 L360,142 L360,143 L361,143 L361,144 L362,144 L362,146 L363,146 L363,148 L364,148 L364,150 L365,150 L365,152 L366,152 L366,155 L367,155 L367,159 L368,159 L368,212 L369,212 L369,213 L370,213 L370,214 L371,214 L371,215 L373,215 L373,216 L374,216 L374,217 L375,217 L375,218 L376,218 L376,219 L377,219 L377,220 L378,220 L378,221 L379,221 L379,222 L380,222 L380,224 L381,224 L381,225 L382,225 L382,226 L383,226 L383,228 L384,228 L384,230 L385,230 L385,232 L386,232 L386,234 L387,234 L387,237 L388,237 L388,240 L389,240 L389,245 L390,245 L390,406 L389,406 L389,411 L388,411 L388,414 L387,414 L387,417 L386,417 L386,419 L385,419 L385,421 L384,421 L384,423 L383,423 L383,424 L382,424 L382,426 L381,426 L381,427 L380,427 L380,429 L379,429 L379,430 L378,430 L378,431 L377,431 L377,432 L376,432 L376,433 L375,433 L375,434 L374,434 L374,435 L373,435 L373,436 L371,436 L371,437 L370,437 L370,438 L369,438 L369,439 L368,439 L368,469 L367,469 L367,474 L366,474 L366,477 L365,477 L365,480 L364,480 L364,482 L363,482 L363,484 L362,484 L362,486 L361,486 L361,488 L360,488 L360,489 L359,489 L359,491 L358,491 L358,492 L357,492 L357,493 L356,493 L356,495 L355,495 L355,496 L354,496 L354,497 L353,497 L353,498 L352,498 L352,499 L351,499 L351,500 L349,500 L349,501 L348,501 L348,502 L347,502 L347,503 L345,503 L345,504 L344,504 L344,505 L342,505 L342,506 L340,506 L340,507 L338,507 L338,508 L336,508 L336,509 L333,509 L333,510 L330,510 L330,511 L326,511 L326,512 L0,512 L0,511 L-4,511 L-4,510 L-7,510 L-7,509 L-10,509 L-10,508 L-12,508 L-12,507 L-14,507 L-14,506 L-16,506 L-16,505 L-18,505 L-18,504 L-19,504 L-19,503 L-21,503 L-21,502 L-22,502 L-22,501 L-23,501 L-23,500 L-25,500 L-25,499 L-26,499 L-26,498 L-27,498 L-27,497 L-28,497 L-28,496 L-29,496 L-29,495 L-30,495 L-30,493 L-31,493 L-31,492 L-32,492 L-32,491 L-33,491 L-33,489 L-34,489 L-34,488 L-35,488 L-35,486 L-36,486 L-36,484 L-37,484 L-37,482 L-38,482 L-38,480 L-39,480 L-39,477 L-40,477 L-40,474 L-41,474 L-41,469 L-42,469 L-42,439 L-43,439 L-43,438 L-44,438 L-44,437 L-45,437 L-45,436 L-47,436 L-47,435 L-48,435 L-48,434 L-49,434 L-49,433 L-50,433 L-50,432 L-51,432 L-51,431 L-52,431 L-52,430 L-53,430 L-53,429 L-54,429 L-54,427 L-55,427 L-55,426 L-56,426 L-56,424 L-57,424 L-57,423 L-58,423 L-58,421 L-59,421 L-59,419 L-60,419 L-60,417 L-61,417 L-61,414 L-62,414 L-62,411 L-63,411 L-63,406 L-64,406 L-64,245 L-63,245 L-63,240 L-62,240 L-62,237 L-61,237 L-61,234 L-60,234 L-60,232 L-59,232 L-59,230 L-58,230 L-58,228 L-57,228 L-57,226 L-56,226 L-56,225 L-55,225 L-55,224 L-54,224 L-54,222 L-53,222 L-53,221 L-52,221 L-52,220 L-51,220 L-51,219 L-50,219 L-50,218 L-49,218 L-49,217 L-48,217 L-48,216 L-47,216 L-47,215 L-46,215 L-46,214 L-44,214 L-44,213 L-43,213 L-43,212 L-42,212 L-42,173 L-41,173 L-41,172 L-40,172 L-40,171 L-39,171 L-39,170 L-37,170 L-37,169 L-35,169 L-35,150 L-38,150 L-38,149 L-39,149 L-39,148 L-40,148 L-40,147 L-41,147 L-41,146 L-42,146 L-42,43 L-41,43 L-41,38 L-40,38 L-40,35 L-39,35 L-39,32 L-38,32 L-38,30 L-37,30 L-37,28 L-36,28 L-36,26 L-35,26 L-35,24 L-34,24 L-34,23 L-33,23 L-33,21 L-32,21 L-32,20 L-31,20 L-31,19 L-30,19 L-30,17 L-29,17 L-29,16 L-28,16 L-28,15 L-27,15 L-27,14 L-26,14 L-26,13 L-25,13 L-25,12 L-23,12 L-23,11 L-22,11 L-22,10 L-21,10 L-21,9 L-19,9 L-19,8 L-18,8 L-18,7 L-16,7 L-16,6 L-14,6 L-14,5 L-12,5 L-12,4 L-10,4 L-10,3 L-8,3 L-8,2 L-4,2 L-4,1 L0,1 Z " fill="#DB4854" transform="translate(93,0)"/>
<path d="M0,0 L202,0 L202,1 L203,1 L203,71 L204,71 L204,72 L205,72 L205,73 L206,73 L206,74 L207,74 L207,75 L213,75 L213,74 L215,74 L215,73 L216,73 L216,72 L217,72 L217,70 L218,70 L218,11 L219,11 L219,12 L220,12 L220,13 L221,13 L221,14 L222,14 L222,15 L223,15 L223,16 L224,16 L224,17 L225,17 L225,18 L226,18 L226,19 L227,19 L227,20 L228,20 L228,21 L229,21 L229,22 L230,22 L230,23 L231,23 L231,24 L232,24 L232,25 L233,25 L233,26 L234,26 L234,27 L235,27 L235,28 L236,28 L236,29 L237,29 L237,30 L238,30 L238,31 L239,31 L239,32 L240,32 L240,33 L241,33 L241,34 L242,34 L242,35 L243,35 L243,36 L244,36 L244,37 L245,37 L245,38 L246,38 L246,39 L247,39 L247,40 L248,40 L248,41 L249,41 L249,42 L250,42 L250,43 L251,43 L251,44 L252,44 L252,45 L253,45 L253,46 L254,46 L254,47 L255,47 L255,48 L256,48 L256,49 L257,49 L257,50 L258,50 L258,51 L259,51 L259,52 L260,52 L260,53 L261,53 L261,54 L262,54 L262,55 L263,55 L263,56 L264,56 L264,57 L265,57 L265,58 L266,58 L266,59 L267,59 L267,60 L268,60 L268,61 L269,61 L269,62 L270,62 L270,63 L271,63 L271,64 L272,64 L272,65 L273,65 L273,66 L274,66 L274,67 L275,67 L275,68 L276,68 L276,69 L277,69 L277,70 L278,70 L278,71 L279,71 L279,72 L280,72 L280,73 L281,73 L281,74 L282,74 L282,75 L283,75 L283,76 L284,76 L284,77 L285,77 L285,78 L286,78 L286,79 L287,79 L287,80 L288,80 L288,81 L289,81 L289,82 L290,82 L290,83 L291,83 L291,84 L292,84 L292,85 L293,85 L293,86 L294,86 L294,87 L295,87 L295,88 L296,88 L296,89 L297,89 L297,90 L298,90 L298,91 L299,91 L299,92 L300,92 L300,93 L301,93 L301,94 L302,94 L302,95 L303,95 L303,96 L304,96 L304,97 L305,97 L305,98 L306,98 L306,99 L307,99 L307,100 L308,100 L308,101 L309,101 L309,102 L310,102 L310,103 L311,103 L311,104 L312,104 L312,105 L313,105 L313,106 L314,106 L314,107 L315,107 L315,108 L316,108 L316,109 L317,109 L317,110 L318,110 L318,111 L319,111 L319,112 L320,112 L320,113 L321,113 L321,114 L322,114 L322,115 L323,115 L323,116 L324,116 L324,117 L325,117 L325,118 L326,118 L326,119 L327,119 L327,120 L328,120 L328,121 L329,121 L329,122 L330,122 L330,123 L331,123 L331,124 L332,124 L332,125 L333,125 L333,126 L334,126 L334,127 L335,127 L335,128 L336,128 L336,129 L337,129 L337,130 L338,130 L338,131 L235,131 L235,130 L232,130 L232,129 L230,129 L230,128 L228,128 L228,127 L227,127 L227,126 L226,126 L226,125 L225,125 L225,124 L224,124 L224,123 L223,123 L223,122 L222,122 L222,121 L221,121 L221,119 L220,119 L220,117 L219,117 L219,115 L218,115 L218,100 L217,100 L217,99 L216,99 L216,97 L214,97 L214,96 L206,96 L206,97 L205,97 L205,98 L204,98 L204,99 L203,99 L203,115 L204,115 L204,119 L205,119 L205,122 L206,122 L206,125 L207,125 L207,127 L208,127 L208,128 L209,128 L209,130 L210,130 L210,131 L211,131 L211,132 L212,132 L212,134 L213,134 L213,135 L214,135 L214,136 L215,136 L215,137 L217,137 L217,138 L218,138 L218,139 L219,139 L219,140 L221,140 L221,141 L222,141 L222,142 L225,142 L225,143 L227,143 L227,144 L229,144 L229,145 L233,145 L233,146 L348,146 L348,147 L349,147 L349,191 L343,191 L343,190 L308,190 L308,191 L307,191 L307,192 L306,192 L306,193 L305,193 L305,194 L304,194 L304,197 L303,197 L303,198 L284,198 L284,195 L283,195 L283,193 L282,193 L282,192 L281,192 L281,191 L278,191 L278,190 L-29,190 L-29,191 L-31,191 L-31,159 L-32,159 L-32,157 L-33,157 L-33,156 L-35,156 L-35,155 L-39,155 L-39,135 L-36,135 L-36,134 L-34,134 L-34,133 L-33,133 L-33,132 L-32,132 L-32,130 L-31,130 L-31,30 L-30,30 L-30,28 L-29,28 L-29,24 L-28,24 L-28,22 L-27,22 L-27,20 L-26,20 L-26,18 L-25,18 L-25,16 L-24,16 L-24,15 L-23,15 L-23,14 L-22,14 L-22,12 L-21,12 L-21,11 L-20,11 L-20,10 L-19,10 L-19,9 L-17,9 L-17,8 L-16,8 L-16,7 L-15,7 L-15,6 L-13,6 L-13,5 L-12,5 L-12,4 L-10,4 L-10,3 L-8,3 L-8,2 L-5,2 L-5,1 L0,1 Z " fill="#F8F7F8" transform="translate(97,15)"/>
<path d="M0,0 L210,0 L210,1 L213,1 L213,2 L216,2 L216,3 L218,3 L218,4 L220,4 L220,5 L222,5 L222,6 L224,6 L224,7 L225,7 L225,8 L226,8 L226,9 L228,9 L228,10 L229,10 L229,11 L230,11 L230,12 L231,12 L231,13 L232,13 L232,14 L233,14 L233,15 L234,15 L234,16 L235,16 L235,17 L236,17 L236,18 L237,18 L237,19 L238,19 L238,20 L239,20 L239,21 L240,21 L240,22 L241,22 L241,23 L242,23 L242,24 L243,24 L243,25 L244,25 L244,26 L245,26 L245,27 L246,27 L246,28 L247,28 L247,29 L248,29 L248,30 L249,30 L249,31 L250,31 L250,32 L251,32 L251,33 L252,33 L252,34 L253,34 L253,35 L254,35 L254,36 L255,36 L255,37 L256,37 L256,38 L257,38 L257,39 L258,39 L258,40 L259,40 L259,41 L260,41 L260,42 L261,42 L261,43 L262,43 L262,44 L263,44 L263,45 L264,45 L264,46 L265,46 L265,47 L266,47 L266,48 L267,48 L267,49 L268,49 L268,50 L269,50 L269,51 L270,51 L270,52 L271,52 L271,53 L272,53 L272,54 L273,54 L273,55 L274,55 L274,56 L275,56 L275,57 L276,57 L276,58 L277,58 L277,59 L278,59 L278,60 L279,60 L279,61 L280,61 L280,62 L281,62 L281,63 L282,63 L282,64 L283,64 L283,65 L284,65 L284,66 L285,66 L285,67 L286,67 L286,68 L287,68 L287,69 L288,69 L288,70 L289,70 L289,71 L290,71 L290,72 L291,72 L291,73 L292,73 L292,74 L293,74 L293,75 L294,75 L294,76 L295,76 L295,77 L296,77 L296,78 L297,78 L297,79 L298,79 L298,80 L299,80 L299,81 L300,81 L300,82 L301,82 L301,83 L302,83 L302,84 L303,84 L303,85 L304,85 L304,86 L305,86 L305,87 L306,87 L306,88 L307,88 L307,89 L308,89 L308,90 L309,90 L309,91 L310,91 L310,92 L311,92 L311,93 L312,93 L312,94 L313,94 L313,95 L314,95 L314,96 L315,96 L315,97 L316,97 L316,98 L317,98 L317,99 L318,99 L318,100 L319,100 L319,101 L320,101 L320,102 L321,102 L321,103 L322,103 L322,104 L323,104 L323,105 L324,105 L324,106 L325,106 L325,107 L326,107 L326,108 L327,108 L327,109 L328,109 L328,110 L329,110 L329,111 L330,111 L330,112 L331,112 L331,113 L332,113 L332,114 L333,114 L333,115 L334,115 L334,116 L335,116 L335,117 L336,117 L336,118 L337,118 L337,119 L338,119 L338,120 L339,120 L339,121 L340,121 L340,122 L341,122 L341,123 L342,123 L342,124 L343,124 L343,125 L344,125 L344,126 L345,126 L345,127 L346,127 L346,128 L347,128 L347,129 L348,129 L348,130 L349,130 L349,131 L350,131 L350,132 L351,132 L351,133 L352,133 L352,134 L353,134 L353,135 L354,135 L354,136 L355,136 L355,137 L356,137 L356,138 L357,138 L357,139 L358,139 L358,140 L359,140 L359,142 L360,142 L360,143 L361,143 L361,144 L362,144 L362,146 L363,146 L363,148 L364,148 L364,150 L365,150 L365,152 L366,152 L366,155 L367,155 L367,159 L368,159 L368,212 L369,212 L369,213 L370,213 L370,214 L371,214 L371,215 L373,215 L373,216 L374,216 L374,217 L375,217 L375,218 L376,218 L376,219 L377,219 L377,220 L378,220 L378,221 L379,221 L379,222 L380,222 L380,224 L381,224 L381,225 L382,225 L382,226 L383,226 L383,228 L384,228 L384,230 L385,230 L385,232 L386,232 L386,234 L387,234 L387,237 L388,237 L388,240 L389,240 L389,245 L390,245 L390,406 L389,406 L389,411 L388,411 L388,414 L387,414 L387,417 L386,417 L386,419 L385,419 L385,421 L384,421 L384,423 L383,423 L383,424 L382,424 L382,426 L381,426 L381,427 L380,427 L380,429 L379,429 L379,430 L378,430 L378,431 L377,431 L377,432 L376,432 L376,433 L375,433 L375,434 L374,434 L374,435 L373,435 L373,436 L371,436 L371,437 L370,437 L370,438 L369,438 L369,439 L368,439 L368,469 L367,469 L367,474 L366,474 L366,477 L365,477 L365,480 L364,480 L364,482 L363,482 L363,484 L362,484 L362,486 L361,486 L361,488 L360,488 L360,489 L359,489 L359,491 L358,491 L358,492 L357,492 L357,493 L356,493 L356,495 L355,495 L355,496 L354,496 L354,497 L353,497 L353,498 L352,498 L352,499 L351,499 L351,500 L349,500 L349,501 L348,501 L348,502 L347,502 L347,503 L345,503 L345,504 L344,504 L344,505 L342,505 L342,506 L340,506 L340,507 L338,507 L338,508 L336,508 L336,509 L333,509 L333,510 L330,510 L330,511 L326,511 L326,512 L0,512 L0,511 L-4,511 L-4,510 L-7,510 L-7,509 L-10,509 L-10,508 L-12,508 L-12,507 L-14,507 L-14,506 L-16,506 L-16,505 L-18,505 L-18,504 L-19,504 L-19,503 L-21,503 L-21,502 L-22,502 L-22,501 L-23,501 L-23,500 L-25,500 L-25,499 L-26,499 L-26,498 L-27,498 L-27,497 L-28,497 L-28,496 L-29,496 L-29,495 L-30,495 L-30,493 L-31,493 L-31,492 L-32,492 L-32,491 L-33,491 L-33,489 L-34,489 L-34,488 L-35,488 L-35,486 L-36,486 L-36,484 L-37,484 L-37,482 L-38,482 L-38,480 L-39,480 L-39,477 L-40,477 L-40,474 L-41,474 L-41,469 L-42,469 L-42,439 L-43,439 L-43,438 L-44,438 L-44,437 L-45,437 L-45,436 L-47,436 L-47,435 L-48,435 L-48,434 L-49,434 L-49,433 L-50,433 L-50,432 L-51,432 L-51,431 L-52,431 L-52,430 L-53,430 L-53,429 L-54,429 L-54,427 L-55,427 L-55,426 L-56,426 L-56,424 L-57,424 L-57,423 L-58,423 L-58,421 L-59,421 L-59,419 L-60,419 L-60,417 L-61,417 L-61,414 L-62,414 L-62,411 L-63,411 L-63,406 L-64,406 L-64,245 L-63,245 L-63,240 L-62,240 L-62,237 L-61,237 L-61,234 L-60,234 L-60,232 L-59,232 L-59,230 L-58,230 L-58,228 L-57,228 L-57,226 L-56,226 L-56,225 L-55,225 L-55,224 L-54,224 L-54,222 L-53,222 L-53,221 L-52,221 L-52,220 L-51,220 L-51,219 L-50,219 L-50,218 L-49,218 L-49,217 L-48,217 L-48,216 L-47,216 L-47,215 L-46,215 L-46,214 L-44,214 L-44,213 L-43,213 L-43,212 L-42,212 L-42,173 L-41,173 L-41,172 L-40,172 L-40,171 L-39,171 L-39,170 L-37,170 L-37,169 L-35,169 L-35,170 L-31,170 L-31,171 L-29,171 L-29,172 L-28,172 L-28,174 L-27,174 L-27,206 L-25,206 L-25,205 L282,205 L282,206 L285,206 L285,207 L286,207 L286,208 L287,208 L287,217 L286,217 L286,218 L285,218 L285,219 L282,219 L282,220 L-23,220 L-23,221 L-26,221 L-26,222 L-29,222 L-29,223 L-31,223 L-31,224 L-32,224 L-32,225 L-34,225 L-34,226 L-35,226 L-35,227 L-37,227 L-37,228 L-38,228 L-38,229 L-39,229 L-39,230 L-40,230 L-40,231 L-41,231 L-41,232 L-42,232 L-42,234 L-43,234 L-43,235 L-44,235 L-44,237 L-45,237 L-45,239 L-46,239 L-46,241 L-47,241 L-47,244 L-48,244 L-48,407 L-47,407 L-47,409 L-46,409 L-46,412 L-45,412 L-45,414 L-44,414 L-44,416 L-43,416 L-43,417 L-42,417 L-42,419 L-41,419 L-41,420 L-40,420 L-40,421 L-39,421 L-39,422 L-38,422 L-38,423 L-37,423 L-37,424 L-35,424 L-35,425 L-34,425 L-34,426 L-32,426 L-32,427 L-31,427 L-31,428 L-29,428 L-29,429 L-26,429 L-26,430 L-23,430 L-23,431 L125,431 L125,432 L127,432 L127,433 L128,433 L128,434 L129,434 L129,436 L130,436 L130,441 L129,441 L129,443 L128,443 L128,444 L127,444 L127,445 L125,445 L125,446 L-23,446 L-23,445 L-27,445 L-27,466 L-26,466 L-26,469 L-25,469 L-25,472 L-24,472 L-24,475 L-23,475 L-23,477 L-22,477 L-22,479 L-21,479 L-21,481 L-20,481 L-20,482 L-19,482 L-19,483 L-18,483 L-18,485 L-17,485 L-17,486 L-16,486 L-16,487 L-14,487 L-14,488 L-13,488 L-13,489 L-12,489 L-12,490 L-11,490 L-11,491 L-9,491 L-9,492 L-8,492 L-8,493 L-6,493 L-6,494 L-3,494 L-3,495 L-1,495 L-1,496 L4,496 L4,497 L322,497 L322,496 L327,496 L327,495 L329,495 L329,494 L331,494 L331,493 L333,493 L333,492 L335,492 L335,491 L337,491 L337,490 L338,490 L338,489 L339,489 L339,488 L341,488 L341,487 L342,487 L342,486 L343,486 L343,484 L344,484 L344,483 L345,483 L345,482 L346,482 L346,481 L347,481 L347,479 L348,479 L348,477 L349,477 L349,475 L350,475 L350,472 L351,472 L351,469 L352,469 L352,466 L353,466 L353,445 L347,445 L347,446 L154,446 L154,445 L153,445 L153,444 L152,444 L152,443 L151,443 L151,441 L150,441 L150,435 L151,435 L151,434 L152,434 L152,433 L153,433 L153,432 L154,432 L154,431 L348,431 L348,430 L351,430 L351,429 L354,429 L354,428 L356,428 L356,427 L358,427 L358,426 L360,426 L360,425 L361,425 L361,424 L363,424 L363,423 L364,423 L364,422 L365,422 L365,421 L366,421 L366,420 L367,420 L367,419 L368,419 L368,417 L369,417 L369,416 L370,416 L370,414 L371,414 L371,412 L372,412 L372,409 L373,409 L373,407 L374,407 L374,244 L373,244 L373,241 L372,241 L372,239 L371,239 L371,237 L370,237 L370,235 L369,235 L369,234 L368,234 L368,232 L367,232 L367,231 L366,231 L366,230 L365,230 L365,229 L364,229 L364,228 L363,228 L363,227 L361,227 L361,226 L360,226 L360,225 L358,225 L358,224 L357,224 L357,223 L354,223 L354,222 L351,222 L351,221 L346,221 L346,220 L312,220 L312,219 L311,219 L311,218 L310,218 L310,217 L309,217 L309,216 L308,216 L308,209 L309,209 L309,208 L310,208 L310,207 L311,207 L311,206 L312,206 L312,205 L347,205 L347,206 L353,206 L353,162 L352,162 L352,161 L237,161 L237,160 L233,160 L233,159 L231,159 L231,158 L229,158 L229,157 L226,157 L226,156 L225,156 L225,155 L223,155 L223,154 L222,154 L222,153 L221,153 L221,152 L219,152 L219,151 L218,151 L218,150 L217,150 L217,149 L216,149 L216,147 L215,147 L215,146 L214,146 L214,145 L213,145 L213,143 L212,143 L212,142 L211,142 L211,140 L210,140 L210,137 L209,137 L209,134 L208,134 L208,130 L207,130 L207,114 L208,114 L208,113 L209,113 L209,112 L210,112 L210,111 L218,111 L218,112 L220,112 L220,114 L221,114 L221,115 L222,115 L222,130 L223,130 L223,132 L224,132 L224,134 L225,134 L225,136 L226,136 L226,137 L227,137 L227,138 L228,138 L228,139 L229,139 L229,140 L230,140 L230,141 L231,141 L231,142 L232,142 L232,143 L234,143 L234,144 L236,144 L236,145 L239,145 L239,146 L342,146 L342,145 L341,145 L341,144 L340,144 L340,143 L339,143 L339,142 L338,142 L338,141 L337,141 L337,140 L336,140 L336,139 L335,139 L335,138 L334,138 L334,137 L333,137 L333,136 L332,136 L332,135 L331,135 L331,134 L330,134 L330,133 L329,133 L329,132 L328,132 L328,131 L327,131 L327,130 L326,130 L326,129 L325,129 L325,128 L324,128 L324,127 L323,127 L323,126 L322,126 L322,125 L321,125 L321,124 L320,124 L320,123 L319,123 L319,122 L318,122 L318,121 L317,121 L317,120 L316,120 L316,119 L315,119 L315,118 L314,118 L314,117 L313,117 L313,116 L312,116 L312,115 L311,115 L311,114 L310,114 L310,113 L309,113 L309,112 L308,112 L308,111 L307,111 L307,110 L306,110 L306,109 L305,109 L305,108 L304,108 L304,107 L303,107 L303,106 L302,106 L302,105 L301,105 L301,104 L300,104 L300,103 L299,103 L299,102 L298,102 L298,101 L297,101 L297,100 L296,100 L296,99 L295,99 L295,98 L294,98 L294,97 L293,97 L293,96 L292,96 L292,95 L291,95 L291,94 L290,94 L290,93 L289,93 L289,92 L288,92 L288,91 L287,91 L287,90 L286,90 L286,89 L285,89 L285,88 L284,88 L284,87 L283,87 L283,86 L282,86 L282,85 L281,85 L281,84 L280,84 L280,83 L279,83 L279,82 L278,82 L278,81 L277,81 L277,80 L276,80 L276,79 L275,79 L275,78 L274,78 L274,77 L273,77 L273,76 L272,76 L272,75 L271,75 L271,74 L270,74 L270,73 L269,73 L269,72 L268,72 L268,71 L267,71 L267,70 L266,70 L266,69 L265,69 L265,68 L264,68 L264,67 L263,67 L263,66 L262,66 L262,65 L261,65 L261,64 L260,64 L260,63 L259,63 L259,62 L258,62 L258,61 L257,61 L257,60 L256,60 L256,59 L255,59 L255,58 L254,58 L254,57 L253,57 L253,56 L252,56 L252,55 L251,55 L251,54 L250,54 L250,53 L249,53 L249,52 L248,52 L248,51 L247,51 L247,50 L246,50 L246,49 L245,49 L245,48 L244,48 L244,47 L243,47 L243,46 L242,46 L242,45 L241,45 L241,44 L240,44 L240,43 L239,43 L239,42 L238,42 L238,41 L237,41 L237,40 L236,40 L236,39 L235,39 L235,38 L234,38 L234,37 L233,37 L233,36 L232,36 L232,35 L231,35 L231,34 L230,34 L230,33 L229,33 L229,32 L228,32 L228,31 L227,31 L227,30 L226,30 L226,29 L225,29 L225,28 L224,28 L224,27 L223,27 L223,26 L222,26 L222,85 L221,85 L221,87 L220,87 L220,88 L219,88 L219,89 L217,89 L217,90 L211,90 L211,89 L210,89 L210,88 L209,88 L209,87 L208,87 L208,86 L207,86 L207,16 L206,16 L206,15 L4,15 L4,16 L-1,16 L-1,17 L-4,17 L-4,18 L-6,18 L-6,19 L-8,19 L-8,20 L-9,20 L-9,21 L-11,21 L-11,22 L-12,22 L-12,23 L-13,23 L-13,24 L-15,24 L-15,25 L-16,25 L-16,26 L-17,26 L-17,27 L-18,27 L-18,29 L-19,29 L-19,30 L-20,30 L-20,31 L-21,31 L-21,33 L-22,33 L-22,35 L-23,35 L-23,37 L-24,37 L-24,39 L-25,39 L-25,43 L-26,43 L-26,45 L-27,45 L-27,145 L-28,145 L-28,147 L-29,147 L-29,148 L-30,148 L-30,149 L-32,149 L-32,150 L-38,150 L-38,149 L-39,149 L-39,148 L-40,148 L-40,147 L-41,147 L-41,146 L-42,146 L-42,43 L-41,43 L-41,38 L-40,38 L-40,35 L-39,35 L-39,32 L-38,32 L-38,30 L-37,30 L-37,28 L-36,28 L-36,26 L-35,26 L-35,24 L-34,24 L-34,23 L-33,23 L-33,21 L-32,21 L-32,20 L-31,20 L-31,19 L-30,19 L-30,17 L-29,17 L-29,16 L-28,16 L-28,15 L-27,15 L-27,14 L-26,14 L-26,13 L-25,13 L-25,12 L-23,12 L-23,11 L-22,11 L-22,10 L-21,10 L-21,9 L-19,9 L-19,8 L-18,8 L-18,7 L-16,7 L-16,6 L-14,6 L-14,5 L-12,5 L-12,4 L-10,4 L-10,3 L-8,3 L-8,2 L-4,2 L-4,1 L0,1 Z " fill="#010000" transform="translate(93,0)"/>
<path d="M0,0 L20,0 L20,2 L21,2 L21,4 L22,4 L22,5 L23,5 L23,6 L24,6 L24,7 L217,7 L217,6 L223,6 L223,27 L222,27 L222,30 L221,30 L221,33 L220,33 L220,36 L219,36 L219,38 L218,38 L218,40 L217,40 L217,42 L216,42 L216,43 L215,43 L215,44 L214,44 L214,45 L213,45 L213,47 L212,47 L212,48 L211,48 L211,49 L209,49 L209,50 L208,50 L208,51 L207,51 L207,52 L205,52 L205,53 L203,53 L203,54 L201,54 L201,55 L199,55 L199,56 L197,56 L197,57 L192,57 L192,58 L-126,58 L-126,57 L-131,57 L-131,56 L-133,56 L-133,55 L-136,55 L-136,54 L-138,54 L-138,53 L-139,53 L-139,52 L-141,52 L-141,51 L-142,51 L-142,50 L-143,50 L-143,49 L-144,49 L-144,48 L-146,48 L-146,47 L-147,47 L-147,46 L-148,46 L-148,44 L-149,44 L-149,43 L-150,43 L-150,42 L-151,42 L-151,40 L-152,40 L-152,38 L-153,38 L-153,36 L-154,36 L-154,33 L-155,33 L-155,30 L-156,30 L-156,27 L-157,27 L-157,6 L-153,6 L-153,7 L-5,7 L-5,6 L-3,6 L-3,5 L-2,5 L-2,4 L-1,4 L-1,2 L0,2 Z " fill="#F8F7F8" transform="translate(223,439)"/>
<path d="M0,0 L1,0 L1,1 L2,1 L2,2 L3,2 L3,3 L4,3 L4,4 L5,4 L5,5 L6,5 L6,6 L7,6 L7,7 L8,7 L8,8 L9,8 L9,9 L10,9 L10,10 L11,10 L11,11 L12,11 L12,12 L13,12 L13,13 L14,13 L14,14 L15,14 L15,15 L16,15 L16,16 L17,16 L17,17 L18,17 L18,18 L19,18 L19,19 L20,19 L20,20 L21,20 L21,21 L22,21 L22,22 L23,22 L23,23 L24,23 L24,24 L25,24 L25,25 L26,25 L26,26 L27,26 L27,27 L28,27 L28,28 L29,28 L29,29 L30,29 L30,30 L31,30 L31,31 L32,31 L32,32 L33,32 L33,33 L34,33 L34,34 L35,34 L35,35 L36,35 L36,36 L37,36 L37,37 L38,37 L38,38 L39,38 L39,39 L40,39 L40,40 L41,40 L41,41 L42,41 L42,42 L43,42 L43,43 L44,43 L44,44 L45,44 L45,45 L46,45 L46,46 L47,46 L47,47 L48,47 L48,48 L49,48 L49,49 L50,49 L50,50 L51,50 L51,51 L52,51 L52,52 L53,52 L53,53 L54,53 L54,54 L55,54 L55,55 L56,55 L56,56 L57,56 L57,57 L58,57 L58,58 L59,58 L59,59 L60,59 L60,60 L61,60 L61,61 L62,61 L62,62 L63,62 L63,63 L64,63 L64,64 L65,64 L65,65 L66,65 L66,66 L67,66 L67,67 L68,67 L68,68 L69,68 L69,69 L70,69 L70,70 L71,70 L71,71 L72,71 L72,72 L73,72 L73,73 L74,73 L74,74 L75,74 L75,75 L76,75 L76,76 L77,76 L77,77 L78,77 L78,78 L79,78 L79,79 L80,79 L80,80 L81,80 L81,81 L82,81 L82,82 L83,82 L83,83 L84,83 L84,84 L85,84 L85,85 L86,85 L86,86 L87,86 L87,87 L88,87 L88,88 L89,88 L89,89 L90,89 L90,90 L91,90 L91,91 L92,91 L92,92 L93,92 L93,93 L94,93 L94,94 L95,94 L95,95 L96,95 L96,96 L97,96 L97,97 L98,97 L98,98 L99,98 L99,99 L100,99 L100,100 L101,100 L101,101 L102,101 L102,102 L103,102 L103,103 L104,103 L104,104 L105,104 L105,105 L106,105 L106,106 L107,106 L107,107 L108,107 L108,108 L109,108 L109,109 L110,109 L110,110 L111,110 L111,111 L112,111 L112,112 L113,112 L113,113 L114,113 L114,114 L115,114 L115,115 L116,115 L116,116 L117,116 L117,117 L118,117 L118,118 L119,118 L119,119 L120,119 L120,120 L17,120 L17,119 L14,119 L14,118 L12,118 L12,117 L10,117 L10,116 L9,116 L9,115 L8,115 L8,114 L7,114 L7,113 L6,113 L6,112 L5,112 L5,111 L4,111 L4,110 L3,110 L3,108 L2,108 L2,106 L1,106 L1,104 L0,104 L0,89 L-1,89 L-1,88 L-2,88 L-2,86 L-4,86 L-4,85 L-10,85 L-10,84 L-8,84 L-8,64 L-5,64 L-5,63 L-3,63 L-3,62 L-2,62 L-2,61 L-1,61 L-1,59 L0,59 Z " fill="#DA4854" transform="translate(315,26)"/>
<path d="M0,0 L22,0 L22,1 L23,1 L23,71 L24,71 L24,72 L25,72 L25,73 L26,73 L26,74 L27,74 L27,75 L30,75 L30,95 L28,95 L28,96 L26,96 L26,97 L25,97 L25,98 L24,98 L24,99 L23,99 L23,115 L24,115 L24,119 L25,119 L25,122 L26,122 L26,125 L27,125 L27,127 L28,127 L28,128 L29,128 L29,130 L30,130 L30,131 L31,131 L31,132 L32,132 L32,134 L33,134 L33,135 L34,135 L34,136 L35,136 L35,137 L37,137 L37,138 L38,138 L38,139 L39,139 L39,140 L41,140 L41,141 L42,141 L42,142 L45,142 L45,143 L47,143 L47,144 L49,144 L49,145 L53,145 L53,146 L168,146 L168,147 L169,147 L169,191 L168,191 L168,168 L48,168 L48,167 L46,167 L46,166 L42,166 L42,165 L39,165 L39,164 L36,164 L36,163 L34,163 L34,162 L32,162 L32,161 L31,161 L31,160 L29,160 L29,159 L27,159 L27,158 L26,158 L26,157 L25,157 L25,156 L23,156 L23,155 L22,155 L22,154 L21,154 L21,153 L20,153 L20,152 L19,152 L19,151 L18,151 L18,150 L17,150 L17,149 L16,149 L16,148 L15,148 L15,147 L14,147 L14,146 L13,146 L13,145 L12,145 L12,143 L11,143 L11,142 L10,142 L10,140 L9,140 L9,139 L8,139 L8,137 L7,137 L7,135 L6,135 L6,133 L5,133 L5,130 L4,130 L4,127 L3,127 L3,124 L2,124 L2,121 L1,121 L1,115 L0,115 Z " fill="#E1DEE2" transform="translate(277,15)"/>
<path d="M0,0 L41,0 L41,1 L46,1 L46,2 L48,2 L48,3 L51,3 L51,4 L53,4 L53,5 L55,5 L55,6 L57,6 L57,7 L58,7 L58,8 L59,8 L59,9 L61,9 L61,10 L62,10 L62,11 L63,11 L63,12 L64,12 L64,13 L65,13 L65,14 L66,14 L66,16 L67,16 L67,17 L68,17 L68,18 L69,18 L69,20 L70,20 L70,22 L71,22 L71,24 L72,24 L72,26 L73,26 L73,29 L74,29 L74,33 L75,33 L75,46 L74,46 L74,49 L73,49 L73,52 L72,52 L72,55 L71,55 L71,57 L70,57 L70,59 L69,59 L69,61 L68,61 L68,62 L67,62 L67,64 L66,64 L66,65 L65,65 L65,66 L64,66 L64,67 L63,67 L63,68 L62,68 L62,69 L61,69 L61,70 L60,70 L60,71 L58,71 L58,72 L57,72 L57,73 L55,73 L55,74 L54,74 L54,75 L52,75 L52,76 L49,76 L49,77 L46,77 L46,78 L43,78 L43,79 L10,79 L10,125 L9,125 L9,126 L8,126 L8,127 L7,127 L7,128 L5,128 L5,129 L0,129 L0,128 L-2,128 L-2,127 L-3,127 L-3,126 L-4,126 L-4,124 L-5,124 L-5,5 L-4,5 L-4,3 L-3,3 L-3,2 L-2,2 L-2,1 L0,1 Z " fill="#030101" transform="translate(125,261)"/>
<path d="M0,0 L30,0 L30,1 L35,1 L35,2 L38,2 L38,3 L40,3 L40,4 L42,4 L42,5 L44,5 L44,6 L45,6 L45,7 L46,7 L46,8 L47,8 L47,9 L48,9 L48,10 L49,10 L49,11 L50,11 L50,12 L51,12 L51,13 L52,13 L52,15 L53,15 L53,17 L54,17 L54,18 L55,18 L55,20 L56,20 L56,22 L57,22 L57,25 L58,25 L58,28 L59,28 L59,32 L60,32 L60,37 L61,37 L61,54 L60,54 L60,61 L59,61 L59,66 L58,66 L58,68 L57,68 L57,71 L56,71 L56,73 L55,73 L55,75 L54,75 L54,77 L53,77 L53,79 L52,79 L52,80 L51,80 L51,82 L50,82 L50,83 L49,83 L49,84 L48,84 L48,85 L47,85 L47,86 L46,86 L46,87 L45,87 L45,88 L44,88 L44,89 L42,89 L42,90 L41,90 L41,91 L39,91 L39,92 L37,92 L37,93 L33,93 L33,94 L31,94 L31,95 L0,95 Z " fill="#DB4854" transform="translate(235,278)"/>
<path d="M0,0 L44,0 L44,1 L49,1 L49,2 L51,2 L51,3 L54,3 L54,4 L56,4 L56,5 L58,5 L58,6 L60,6 L60,7 L62,7 L62,8 L63,8 L63,9 L65,9 L65,10 L66,10 L66,11 L67,11 L67,12 L68,12 L68,13 L69,13 L69,14 L70,14 L70,15 L71,15 L71,16 L72,16 L72,17 L73,17 L73,18 L74,18 L74,20 L75,20 L75,21 L76,21 L76,23 L77,23 L77,24 L78,24 L78,26 L79,26 L79,28 L80,28 L80,30 L81,30 L81,32 L82,32 L82,35 L83,35 L83,38 L84,38 L84,43 L85,43 L85,47 L86,47 L86,53 L87,53 L87,71 L86,71 L86,77 L85,77 L85,83 L84,83 L84,85 L83,85 L83,88 L82,88 L82,91 L81,91 L81,94 L80,94 L80,96 L79,96 L79,98 L78,98 L78,100 L77,100 L77,101 L76,101 L76,103 L75,103 L75,104 L74,104 L74,106 L73,106 L73,107 L72,107 L72,108 L71,108 L71,109 L70,109 L70,110 L69,110 L69,111 L68,111 L68,112 L67,112 L67,113 L66,113 L66,114 L65,114 L65,115 L64,115 L64,116 L62,116 L62,117 L61,117 L61,118 L59,118 L59,119 L57,119 L57,120 L55,120 L55,121 L53,121 L53,122 L50,122 L50,123 L48,123 L48,124 L41,124 L41,125 L0,125 L0,124 L-1,124 L-1,123 L-2,123 L-2,122 L-3,122 L-3,120 L-4,120 L-4,4 L-3,4 L-3,3 L-2,3 L-2,2 L-1,2 L-1,1 L0,1 Z M11,15 L11,110 L42,110 L42,109 L44,109 L44,108 L48,108 L48,107 L50,107 L50,106 L52,106 L52,105 L53,105 L53,104 L55,104 L55,103 L56,103 L56,102 L57,102 L57,101 L58,101 L58,100 L59,100 L59,99 L60,99 L60,98 L61,98 L61,97 L62,97 L62,95 L63,95 L63,94 L64,94 L64,92 L65,92 L65,90 L66,90 L66,88 L67,88 L67,86 L68,86 L68,83 L69,83 L69,81 L70,81 L70,76 L71,76 L71,69 L72,69 L72,52 L71,52 L71,47 L70,47 L70,43 L69,43 L69,40 L68,40 L68,37 L67,37 L67,35 L66,35 L66,33 L65,33 L65,32 L64,32 L64,30 L63,30 L63,28 L62,28 L62,27 L61,27 L61,26 L60,26 L60,25 L59,25 L59,24 L58,24 L58,23 L57,23 L57,22 L56,22 L56,21 L55,21 L55,20 L53,20 L53,19 L51,19 L51,18 L49,18 L49,17 L46,17 L46,16 L41,16 L41,15 Z " fill="#020000" transform="translate(224,263)"/>
<path d="M0,0 L11,0 L11,1 L9,1 L9,2 L8,2 L8,3 L7,3 L7,4 L6,4 L6,5 L5,5 L5,6 L4,6 L4,7 L3,7 L3,8 L2,8 L2,9 L1,9 L1,10 L0,10 L0,12 L-1,12 L-1,13 L-2,13 L-2,15 L-3,15 L-3,17 L-4,17 L-4,19 L-5,19 L-5,21 L-6,21 L-6,25 L-7,25 L-7,27 L-8,27 L-8,190 L-29,190 L-29,191 L-31,191 L-31,159 L-32,159 L-32,157 L-33,157 L-33,156 L-35,156 L-35,155 L-39,155 L-39,135 L-36,135 L-36,134 L-34,134 L-34,133 L-33,133 L-33,132 L-32,132 L-32,130 L-31,130 L-31,30 L-30,30 L-30,28 L-29,28 L-29,24 L-28,24 L-28,22 L-27,22 L-27,20 L-26,20 L-26,18 L-25,18 L-25,16 L-24,16 L-24,15 L-23,15 L-23,14 L-22,14 L-22,12 L-21,12 L-21,11 L-20,11 L-20,10 L-19,10 L-19,9 L-17,9 L-17,8 L-16,8 L-16,7 L-15,7 L-15,6 L-13,6 L-13,5 L-12,5 L-12,4 L-10,4 L-10,3 L-8,3 L-8,2 L-5,2 L-5,1 L0,1 Z " fill="#E1DEE2" transform="translate(97,15)"/>
<path d="M0,0 L8,0 L8,1 L7,1 L7,2 L6,2 L6,3 L5,3 L5,4 L3,4 L3,6 L2,6 L2,7 L1,7 L1,8 L0,8 L0,9 L-1,9 L-1,11 L-2,11 L-2,12 L-3,12 L-3,14 L-4,14 L-4,16 L-5,16 L-5,18 L-6,18 L-6,21 L-7,21 L-7,25 L-8,25 L-8,186 L-7,186 L-7,189 L-6,189 L-6,192 L-5,192 L-5,195 L-4,195 L-4,197 L-3,197 L-3,199 L-2,199 L-2,200 L-1,200 L-1,202 L0,202 L0,203 L1,203 L1,204 L2,204 L2,205 L3,205 L3,207 L4,207 L4,208 L6,208 L6,209 L7,209 L7,210 L8,210 L8,211 L0,211 L0,210 L-3,210 L-3,209 L-6,209 L-6,208 L-8,208 L-8,207 L-9,207 L-9,206 L-11,206 L-11,205 L-12,205 L-12,204 L-14,204 L-14,203 L-15,203 L-15,202 L-16,202 L-16,201 L-17,201 L-17,200 L-18,200 L-18,199 L-19,199 L-19,197 L-20,197 L-20,196 L-21,196 L-21,194 L-22,194 L-22,192 L-23,192 L-23,189 L-24,189 L-24,187 L-25,187 L-25,24 L-24,24 L-24,21 L-23,21 L-23,19 L-22,19 L-22,17 L-21,17 L-21,15 L-20,15 L-20,14 L-19,14 L-19,12 L-18,12 L-18,11 L-17,11 L-17,10 L-16,10 L-16,9 L-15,9 L-15,8 L-14,8 L-14,7 L-12,7 L-12,6 L-11,6 L-11,5 L-9,5 L-9,4 L-8,4 L-8,3 L-6,3 L-6,2 L-3,2 L-3,1 L0,1 Z " fill="#C3232F" transform="translate(70,220)"/>
<path d="M0,0 L50,0 L50,1 L52,1 L52,2 L53,2 L53,3 L54,3 L54,4 L55,4 L55,6 L56,6 L56,10 L55,10 L55,12 L54,12 L54,13 L53,13 L53,14 L52,14 L52,15 L10,15 L10,56 L47,56 L47,57 L49,57 L49,58 L50,58 L50,59 L51,59 L51,60 L52,60 L52,66 L51,66 L51,68 L50,68 L50,69 L49,69 L49,70 L47,70 L47,71 L10,71 L10,123 L9,123 L9,125 L8,125 L8,126 L7,126 L7,127 L6,127 L6,128 L-2,128 L-2,127 L-3,127 L-3,126 L-4,126 L-4,124 L-5,124 L-5,5 L-4,5 L-4,3 L-3,3 L-3,2 L-2,2 L-2,1 L0,1 Z " fill="#030101" transform="translate(336,261)"/>
<path d="M0,0 L30,0 L30,1 L33,1 L33,2 L35,2 L35,3 L37,3 L37,4 L39,4 L39,5 L40,5 L40,6 L41,6 L41,7 L42,7 L42,8 L43,8 L43,9 L44,9 L44,10 L45,10 L45,11 L46,11 L46,13 L47,13 L47,14 L48,14 L48,17 L49,17 L49,19 L50,19 L50,30 L49,30 L49,32 L48,32 L48,35 L47,35 L47,37 L46,37 L46,38 L45,38 L45,40 L44,40 L44,41 L43,41 L43,42 L42,42 L42,43 L41,43 L41,44 L39,44 L39,45 L38,45 L38,46 L36,46 L36,47 L34,47 L34,48 L30,48 L30,49 L27,49 L27,50 L0,50 Z " fill="#D74753" transform="translate(135,276)"/>
<path d="M0,0 L4,0 L4,1 L23,1 L23,24 L24,24 L24,27 L25,27 L25,31 L26,31 L26,33 L27,33 L27,35 L28,35 L28,37 L29,37 L29,39 L30,39 L30,40 L31,40 L31,42 L32,42 L32,43 L33,43 L33,44 L34,44 L34,45 L35,45 L35,46 L36,46 L36,47 L37,47 L37,48 L38,48 L38,49 L39,49 L39,50 L40,50 L40,51 L42,51 L42,52 L31,52 L31,51 L26,51 L26,50 L24,50 L24,49 L21,49 L21,48 L19,48 L19,47 L18,47 L18,46 L16,46 L16,45 L15,45 L15,44 L14,44 L14,43 L13,43 L13,42 L11,42 L11,41 L10,41 L10,40 L9,40 L9,38 L8,38 L8,37 L7,37 L7,36 L6,36 L6,34 L5,34 L5,32 L4,32 L4,30 L3,30 L3,27 L2,27 L2,24 L1,24 L1,21 L0,21 Z " fill="#E0DDE1" transform="translate(66,445)"/>
</svg>
